<svg version="1.1" id="Layer_1" xmlns="http://www.w3.org/2000/svg" xmlns:xlink="http://www.w3.org/1999/xlink" x="0px" y="0px"
	 width="100%" viewBox="0 0 960 735" enable-background="new 0 0 960 735" xml:space="preserve">
<path fill="#000000" opacity="1.000000" stroke="none" 
	d="
M611.000000,736.000000 
	C407.333405,736.000000 204.166794,736.000000 1.000136,736.000000 
	C1.000091,491.000122 1.000091,246.000275 1.000045,1.000301 
	C320.999786,1.000200 640.999573,1.000200 960.999512,1.000100 
	C960.999634,245.999695 960.999634,490.999390 960.999817,735.999512 
	C844.500000,736.000000 728.000000,736.000000 611.000000,736.000000 
M903.759094,570.500000 
	C903.759094,402.559631 903.759094,234.619293 903.759094,66.548004 
	C622.313782,66.548004 341.428162,66.548004 60.587654,66.548004 
	C60.587654,270.422394 60.587654,473.981659 60.587654,677.379395 
	C341.825989,677.379395 622.716736,677.379395 903.758972,677.379395 
	C903.758972,641.824463 903.758972,606.662231 903.759094,570.500000 
z"/>
<path fill="#58C3C6" opacity="1.000000" stroke="none" 
	d="
M903.759033,571.000000 
	C903.758972,606.662231 903.758972,641.824463 903.758972,677.379395 
	C622.716736,677.379395 341.825989,677.379395 60.587654,677.379395 
	C60.587654,473.981659 60.587654,270.422394 60.587654,66.548004 
	C341.428162,66.548004 622.313782,66.548004 903.759094,66.548004 
	C903.759094,234.619293 903.759094,402.559631 903.759033,571.000000 
M514.284546,621.038391 
	C512.647949,619.624451 511.262054,619.279846 511.197113,622.094421 
	C511.110016,625.869446 511.144409,629.652344 511.316528,633.423218 
	C511.344604,634.038574 512.351074,634.609253 513.342957,635.667542 
	C513.979736,630.801208 514.517639,626.690125 515.846313,622.221497 
	C519.822937,621.002563 520.966003,623.020569 520.887085,626.561584 
	C520.824890,629.349426 520.874573,632.139709 520.874573,634.928955 
	C521.662292,634.899597 522.450073,634.870178 523.237793,634.840820 
	C523.237793,631.734802 523.324341,628.625854 523.218933,625.523438 
	C523.026794,619.868408 520.478455,618.569336 514.284546,621.038391 
M516.900757,116.012138 
	C520.139709,115.603088 520.873657,117.558807 520.871460,120.214333 
	C520.869141,123.133408 520.870972,126.052490 520.870972,128.971558 
	C521.659668,128.945053 522.448364,128.918549 523.237061,128.892044 
	C523.237061,125.814163 523.324646,122.733253 523.218018,119.659073 
	C523.022400,114.021309 520.541992,112.724434 514.317139,115.209030 
	C512.734253,113.782219 511.298645,113.323273 511.205566,116.171402 
	C511.082336,119.943230 511.170685,123.725235 511.287323,127.499153 
	C511.314301,128.371643 511.824493,129.229202 512.112366,130.093628 
	C512.423950,129.687790 512.735596,129.281952 513.047180,128.876114 
	C514.062195,124.602020 515.077209,120.327919 516.900757,116.012138 
M497.013000,114.835480 
	C493.841766,113.145157 490.388153,113.613625 489.708344,116.956856 
	C488.991577,120.481812 490.283173,124.415131 490.697357,128.170044 
	C493.186218,127.835999 495.675049,127.501961 498.649628,127.631950 
	C498.929932,135.891785 493.707794,132.266205 489.554199,132.090546 
	C491.663696,133.668381 494.004791,135.093948 496.055328,134.756073 
	C497.881348,134.455215 500.640747,132.335846 500.805634,130.786743 
	C501.387634,125.318565 501.032104,119.750595 501.032104,113.982491 
	C499.446869,114.584557 498.509003,114.940742 497.013000,114.835480 
M497.975922,633.965393 
	C497.975922,633.965393 497.949768,633.919861 498.602783,634.510132 
	C498.049408,642.437073 492.871765,636.991028 489.497833,638.059265 
	C491.591431,639.502014 493.970642,640.954285 496.075928,640.629700 
	C497.888672,640.350220 500.634979,638.177795 500.802094,636.611145 
	C501.384857,631.148315 501.027557,625.585266 501.027557,619.109741 
	C499.507050,620.542786 498.749176,621.257080 497.988556,622.029480 
	C497.988556,622.029480 498.047302,622.028564 497.839539,621.284546 
	C495.321503,621.340576 490.781006,620.892700 490.620636,621.536194 
	C489.723480,625.136963 488.896942,629.307251 489.945831,632.694702 
	C491.130066,636.519165 495.013245,635.076294 497.975922,633.965393 
M813.029236,173.024994 
	C592.205627,173.018555 371.382050,173.011993 150.558472,173.009491 
	C149.726227,173.009476 148.893982,173.068100 147.426331,173.630325 
	C147.278381,175.105209 147.001083,176.580078 147.000870,178.054977 
	C146.981049,312.519653 147.003540,446.984375 146.889282,581.448975 
	C146.885529,585.867065 148.099945,587.050964 152.499588,587.048889 
	C371.442047,586.945129 590.384521,586.942505 809.326965,587.059937 
	C814.054810,587.062500 815.110168,585.605408 815.106567,581.122375 
	C814.997070,446.824432 815.021545,312.526337 814.972778,178.228317 
	C814.972168,176.518646 814.299072,174.809219 813.029236,173.024994 
M441.032684,630.262085 
	C441.158661,631.860107 441.284668,633.458069 441.410675,635.056091 
	C442.026794,635.044373 442.642944,635.032654 443.259094,635.020935 
	C443.490814,630.869934 443.722534,626.718933 443.954254,622.567871 
	C444.209503,622.544678 444.464752,622.521545 444.720001,622.498352 
	C446.468140,626.768799 448.216309,631.039246 449.964478,635.309631 
	C450.457123,635.273865 450.949799,635.238037 451.442474,635.202271 
	C453.095001,631.097961 454.747559,626.993652 456.400116,622.889343 
	C456.726501,622.994812 457.052887,623.100220 457.379242,623.205688 
	C457.588043,627.147888 457.796844,631.090088 458.005646,635.032288 
	C458.496338,635.015381 458.987030,634.998474 459.477722,634.981567 
	C459.477722,628.587402 459.477722,622.193176 459.477722,614.571350 
	C453.147919,618.536194 454.275818,626.016907 450.645020,630.171509 
	C447.102173,625.807251 448.369202,618.364685 441.032654,614.451172 
	C441.032654,620.394165 441.032654,624.855774 441.032684,630.262085 
M445.622223,112.036064 
	C444.379608,111.173058 443.136993,110.310051 441.544189,109.203827 
	C441.544189,116.698944 441.544189,122.837563 441.544189,128.976196 
	C442.055084,129.005081 442.566010,129.033981 443.076904,129.062866 
	C443.076904,124.929115 443.076904,120.795372 443.076904,116.661621 
	C443.546692,116.596748 444.016479,116.531876 444.486267,116.467010 
	C446.355804,120.778427 448.225342,125.089851 450.094879,129.401276 
	C450.562836,129.339371 451.030762,129.277481 451.498718,129.215576 
	C453.134705,125.145470 454.770660,121.075348 456.406647,117.005234 
	C456.729218,117.120605 457.051758,117.235977 457.374329,117.351357 
	C457.597168,121.260986 457.819977,125.170616 458.042786,129.080246 
	C458.533295,129.057968 459.023773,129.035706 459.514282,129.013428 
	C459.514282,122.646988 459.514282,116.280548 459.514282,108.829735 
	C452.974945,112.530380 454.369293,120.140900 450.395050,124.612213 
	C448.834473,120.478394 447.371948,116.604332 445.622223,112.036064 
M475.984833,628.392761 
	C475.950684,626.902039 476.099121,625.379333 475.845093,623.927063 
	C475.281525,620.705200 473.001984,619.753845 470.002136,619.835754 
	C466.397675,619.934265 465.653809,620.494019 465.066406,623.830078 
	C472.139465,621.086304 472.270355,621.115540 472.633911,625.616211 
	C470.689636,625.860962 468.296661,625.500183 466.905884,626.514099 
	C465.360565,627.640747 464.082977,629.978943 463.960388,631.872009 
	C463.894775,632.885254 466.438812,634.893921 467.919800,635.011780 
	C471.171051,635.270325 474.495209,634.611511 477.368256,634.363647 
	C476.950500,632.822388 476.468140,631.042847 475.984833,628.392761 
M473.587646,127.791351 
	C474.898865,128.278091 476.210083,128.764816 476.701508,128.947250 
	C476.435638,125.422585 476.156891,122.317528 475.979279,119.206696 
	C475.801727,116.097862 474.328339,114.293472 471.149689,113.962624 
	C467.458984,113.578476 465.975281,114.472855 464.906403,117.827179 
	C472.093506,115.782722 472.093506,115.782722 472.825439,119.535133 
	C470.578064,119.975899 467.956787,119.859131 466.203644,121.035820 
	C464.831421,121.956810 463.769257,124.594131 464.015015,126.254921 
	C464.195740,127.476402 466.607727,128.904526 468.221893,129.213211 
	C469.600769,129.476913 471.259308,128.278564 473.587646,127.791351 
M479.951477,625.570007 
	C479.951477,628.705261 479.951477,631.840515 479.951477,634.975769 
	C480.558929,635.055603 481.166382,635.135498 481.773865,635.215393 
	C484.393372,630.743530 479.693970,623.311951 486.808899,620.323853 
	C484.611542,620.323853 482.414154,620.323853 479.950775,620.323853 
	C479.950775,621.997559 479.950775,623.307495 479.951477,625.570007 
M506.347382,114.136581 
	C505.743439,119.055206 505.139496,123.973824 504.535553,128.892456 
	C505.337616,128.950226 506.139648,129.008011 506.941681,129.065781 
	C508.434082,124.299522 508.019043,119.384598 506.347382,114.136581 
M481.240173,114.183113 
	C478.526398,119.121872 480.291473,124.066559 480.279053,129.008881 
	C481.083496,129.022858 481.887939,129.036835 482.692413,129.050797 
	C482.460571,124.227036 482.228729,119.403275 481.240173,114.183113 
M504.941284,628.451172 
	C504.941284,630.622437 504.941284,632.793701 504.941284,635.736206 
	C508.886322,632.208862 508.598816,621.831360 504.941254,619.937988 
	C504.941254,622.636963 504.941254,625.071289 504.941284,628.451172 
z"/>
<path fill="#497DB3" opacity="1.000000" stroke="none" 
	d="
M813.939880,173.099670 
	C814.299072,174.809219 814.972168,176.518646 814.972778,178.228317 
	C815.021545,312.526337 814.997070,446.824432 815.106567,581.122375 
	C815.110168,585.605408 814.054810,587.062500 809.326965,587.059937 
	C590.384521,586.942505 371.442047,586.945129 152.499588,587.048889 
	C148.099945,587.050964 146.885529,585.867065 146.889282,581.448975 
	C147.003540,446.984375 146.981049,312.519653 147.000870,178.054977 
	C147.001083,176.580078 147.278381,175.105209 147.855515,173.596130 
	C148.570038,173.750275 148.855392,173.938583 149.090698,174.581207 
	C149.017410,176.701523 148.973801,178.367569 148.973755,180.033600 
	C148.970596,312.688171 148.970703,445.342743 148.971329,577.997314 
	C148.971359,584.990845 148.974457,584.994202 155.986694,584.994202 
	C372.633636,584.994751 589.280579,584.994690 805.927490,584.994202 
	C813.025085,584.994202 813.028564,584.991333 813.028625,578.083069 
	C813.029297,445.428497 813.029907,312.773926 813.022095,180.119339 
	C813.021973,178.121887 812.915955,176.124435 813.094482,174.017151 
	C813.533081,173.638107 813.736450,173.368896 813.939880,173.099670 
z"/>
<path fill="#376AA6" opacity="1.000000" stroke="none" 
	d="
M149.140732,174.126907 
	C148.855392,173.938583 148.570038,173.750275 148.173218,173.330643 
	C148.893982,173.068100 149.726227,173.009476 150.558472,173.009491 
	C371.382050,173.011993 592.205627,173.018555 813.484558,173.062332 
	C813.736450,173.368896 813.533081,173.638107 812.640747,173.997528 
	C591.847595,174.083237 371.743378,174.078705 151.639130,174.076447 
	C150.806335,174.076431 149.973526,174.109360 149.140732,174.126907 
z"/>
<path fill="#0A1717" opacity="1.000000" stroke="none" 
	d="
M441.032654,629.789734 
	C441.032654,624.855774 441.032654,620.394165 441.032654,614.451172 
	C448.369202,618.364685 447.102173,625.807251 450.645020,630.171509 
	C454.275818,626.016907 453.147919,618.536194 459.477722,614.571350 
	C459.477722,622.193176 459.477722,628.587402 459.477722,634.981567 
	C458.987030,634.998474 458.496338,635.015381 458.005646,635.032288 
	C457.796844,631.090088 457.588043,627.147888 457.379242,623.205688 
	C457.052887,623.100220 456.726501,622.994812 456.400116,622.889343 
	C454.747559,626.993652 453.095001,631.097961 451.442474,635.202271 
	C450.949799,635.238037 450.457123,635.273865 449.964478,635.309631 
	C448.216309,631.039246 446.468140,626.768799 444.720001,622.498352 
	C444.464752,622.521545 444.209503,622.544678 443.954254,622.567871 
	C443.722534,626.718933 443.490814,630.869934 443.259094,635.020935 
	C442.642944,635.032654 442.026794,635.044373 441.410675,635.056091 
	C441.284668,633.458069 441.158661,631.860107 441.032654,629.789734 
z"/>
<path fill="#0A1717" opacity="1.000000" stroke="none" 
	d="
M445.765808,112.383163 
	C447.371948,116.604332 448.834473,120.478394 450.395050,124.612213 
	C454.369293,120.140900 452.974945,112.530380 459.514282,108.829735 
	C459.514282,116.280548 459.514282,122.646988 459.514282,129.013428 
	C459.023773,129.035706 458.533295,129.057968 458.042786,129.080246 
	C457.819977,125.170616 457.597168,121.260986 457.374329,117.351357 
	C457.051758,117.235977 456.729218,117.120605 456.406647,117.005234 
	C454.770660,121.075348 453.134705,125.145470 451.498718,129.215576 
	C451.030762,129.277481 450.562836,129.339371 450.094879,129.401276 
	C448.225342,125.089851 446.355804,120.778427 444.486267,116.467010 
	C444.016479,116.531876 443.546692,116.596748 443.076904,116.661621 
	C443.076904,120.795372 443.076904,124.929115 443.076904,129.062866 
	C442.566010,129.033981 442.055084,129.005081 441.544189,128.976196 
	C441.544189,122.837563 441.544189,116.698944 441.544189,109.203827 
	C443.136993,110.310051 444.379608,111.173058 445.765808,112.383163 
z"/>
<path fill="#081212" opacity="1.000000" stroke="none" 
	d="
M497.991302,621.971375 
	C498.749176,621.257080 499.507050,620.542786 501.027557,619.109741 
	C501.027557,625.585266 501.384857,631.148315 500.802094,636.611145 
	C500.634979,638.177795 497.888672,640.350220 496.075928,640.629700 
	C493.970642,640.954285 491.591431,639.502014 489.497833,638.059265 
	C492.871765,636.991028 498.049408,642.437073 498.463806,634.368652 
	C498.417633,633.970886 498.510468,633.714661 498.603271,633.458435 
	C498.404327,633.641663 498.205353,633.824890 498.006378,634.008057 
	C495.013245,635.076294 491.130066,636.519165 489.945831,632.694702 
	C488.896942,629.307251 489.723480,625.136963 490.620636,621.536194 
	C490.781006,620.892700 495.321503,621.340576 497.565308,621.889771 
	C492.420563,621.608215 490.407471,623.541809 491.387848,628.773560 
	C491.683197,630.349609 493.429047,631.653931 494.510468,633.082764 
	C495.906433,631.724670 498.090607,630.568970 498.504242,628.958496 
	C499.054810,626.814819 498.226990,624.317017 497.991302,621.971375 
z"/>
<path fill="#0A1717" opacity="1.000000" stroke="none" 
	d="
M475.985291,628.828003 
	C476.468140,631.042847 476.950500,632.822388 477.368256,634.363647 
	C474.495209,634.611511 471.171051,635.270325 467.919800,635.011780 
	C466.438812,634.893921 463.894775,632.885254 463.960388,631.872009 
	C464.082977,629.978943 465.360565,627.640747 466.905884,626.514099 
	C468.296661,625.500183 470.689636,625.860962 472.633911,625.616211 
	C472.270355,621.115540 472.139465,621.086304 465.066406,623.830078 
	C465.653809,620.494019 466.397675,619.934265 470.002136,619.835754 
	C473.001984,619.753845 475.281525,620.705200 475.845093,623.927063 
	C476.099121,625.379333 475.950684,626.902039 475.985291,628.828003 
M470.573578,627.817688 
	C469.118805,628.808167 467.664032,629.798706 466.209290,630.789246 
	C466.751038,631.540588 467.454987,633.002258 467.806824,632.921875 
	C469.444855,632.547913 471.072021,631.880188 472.474792,630.966919 
	C472.705231,630.816895 471.796295,628.916687 470.573578,627.817688 
z"/>
<path fill="#0A1717" opacity="1.000000" stroke="none" 
	d="
M473.190887,127.759140 
	C471.259308,128.278564 469.600769,129.476913 468.221893,129.213211 
	C466.607727,128.904526 464.195740,127.476402 464.015015,126.254921 
	C463.769257,124.594131 464.831421,121.956810 466.203644,121.035820 
	C467.956787,119.859131 470.578064,119.975899 472.825439,119.535133 
	C472.093506,115.782722 472.093506,115.782722 464.906403,117.827179 
	C465.975281,114.472855 467.458984,113.578476 471.149689,113.962624 
	C474.328339,114.293472 475.801727,116.097862 475.979279,119.206696 
	C476.156891,122.317528 476.435638,125.422585 476.701508,128.947250 
	C476.210083,128.764816 474.898865,128.278091 473.190887,127.759140 
M472.296021,122.032639 
	C471.484436,122.014603 470.530182,121.714371 469.891144,122.037544 
	C468.578766,122.701225 467.323883,123.594170 466.326263,124.656540 
	C466.149658,124.844620 467.379608,127.073753 467.882629,127.044182 
	C469.361420,126.957214 470.997681,126.476830 472.179810,125.613258 
	C472.847290,125.125664 472.742432,123.580856 472.296021,122.032639 
z"/>
<path fill="#081212" opacity="1.000000" stroke="none" 
	d="
M497.571167,115.296921 
	C498.509003,114.940742 499.446869,114.584557 501.032104,113.982491 
	C501.032104,119.750595 501.387634,125.318565 500.805634,130.786743 
	C500.640747,132.335846 497.881348,134.455215 496.055328,134.756073 
	C494.004791,135.093948 491.663696,133.668381 489.554199,132.090546 
	C493.707794,132.266205 498.929932,135.891785 498.206970,127.199265 
	C497.631073,126.632881 497.497772,126.499184 497.563477,126.062561 
	C499.481720,122.376900 499.099274,119.204109 497.007263,115.996460 
	C497.326874,115.613060 497.449005,115.454994 497.571167,115.296921 
z"/>
<path fill="#081212" opacity="1.000000" stroke="none" 
	d="
M497.964111,126.967239 
	C495.675049,127.501961 493.186218,127.835999 490.697357,128.170044 
	C490.283173,124.415131 488.991577,120.481812 489.708344,116.956856 
	C490.388153,113.613625 493.841766,113.145157 497.292084,115.066200 
	C497.449005,115.454994 497.326874,115.613060 496.621643,115.937874 
	C491.972656,116.578438 490.459412,119.012444 491.340271,123.614380 
	C492.060547,127.377350 494.151489,128.087006 497.364471,126.365494 
	C497.497772,126.499184 497.631073,126.632881 497.964111,126.967239 
z"/>
<path fill="#0A1717" opacity="1.000000" stroke="none" 
	d="
M479.951111,625.093750 
	C479.950775,623.307495 479.950775,621.997559 479.950775,620.323853 
	C482.414154,620.323853 484.611542,620.323853 486.808899,620.323853 
	C479.693970,623.311951 484.393372,630.743530 481.773865,635.215393 
	C481.166382,635.135498 480.558929,635.055603 479.951477,634.975769 
	C479.951477,631.840515 479.951477,628.705261 479.951111,625.093750 
z"/>
<path fill="#102425" opacity="1.000000" stroke="none" 
	d="
M516.092285,116.053833 
	C515.077209,120.327919 514.062195,124.602020 513.047180,128.876114 
	C512.735596,129.281952 512.423950,129.687790 512.112366,130.093628 
	C511.824493,129.229202 511.314301,128.371643 511.287323,127.499153 
	C511.170685,123.725235 511.082336,119.943230 511.205566,116.171402 
	C511.298645,113.323273 512.734253,113.782219 514.854553,115.415298 
	C515.612793,115.786140 515.846252,115.930237 516.092285,116.053833 
z"/>
<path fill="#102425" opacity="1.000000" stroke="none" 
	d="
M515.055603,622.578979 
	C514.517639,626.690125 513.979736,630.801208 513.342957,635.667542 
	C512.351074,634.609253 511.344604,634.038574 511.316528,633.423218 
	C511.144409,629.652344 511.110016,625.869446 511.197113,622.094421 
	C511.262054,619.279846 512.647949,619.624451 514.700867,621.480652 
	C515.096619,622.141663 515.076111,622.360352 515.055603,622.578979 
z"/>
<path fill="#102425" opacity="1.000000" stroke="none" 
	d="
M506.757324,114.286102 
	C508.019043,119.384598 508.434082,124.299522 506.941681,129.065781 
	C506.139648,129.008011 505.337616,128.950226 504.535553,128.892456 
	C505.139496,123.973824 505.743439,119.055206 506.757324,114.286102 
z"/>
<path fill="#0A1717" opacity="1.000000" stroke="none" 
	d="
M481.618530,114.381317 
	C482.228729,119.403275 482.460571,124.227036 482.692413,129.050797 
	C481.887939,129.036835 481.083496,129.022858 480.279053,129.008881 
	C480.291473,124.066559 478.526398,119.121872 481.618530,114.381317 
z"/>
<path fill="#102425" opacity="1.000000" stroke="none" 
	d="
M504.941284,627.978394 
	C504.941254,625.071289 504.941254,622.636963 504.941254,619.937988 
	C508.598816,621.831360 508.886322,632.208862 504.941284,635.736206 
	C504.941284,632.793701 504.941284,630.622437 504.941284,627.978394 
z"/>
<path fill="#050606" opacity="1.000000" stroke="none" 
	d="
M515.450928,622.400269 
	C515.076111,622.360352 515.096619,622.141663 515.086060,621.594910 
	C520.478455,618.569336 523.026794,619.868408 523.218933,625.523438 
	C523.324341,628.625854 523.237793,631.734802 523.237793,634.840820 
	C522.450073,634.870178 521.662292,634.899597 520.874573,634.928955 
	C520.874573,632.139709 520.824890,629.349426 520.887085,626.561584 
	C520.966003,623.020569 519.822937,621.002563 515.450928,622.400269 
z"/>
<path fill="#050606" opacity="1.000000" stroke="none" 
	d="
M516.496521,116.032990 
	C515.846252,115.930237 515.612793,115.786140 515.251465,115.471130 
	C520.541992,112.724434 523.022400,114.021309 523.218018,119.659073 
	C523.324646,122.733253 523.237061,125.814163 523.237061,128.892044 
	C522.448364,128.918549 521.659668,128.945053 520.870972,128.971558 
	C520.870972,126.052490 520.869141,123.133408 520.871460,120.214333 
	C520.873657,117.558807 520.139709,115.603088 516.496521,116.032990 
z"/>
<path fill="#729FCF" opacity="1.000000" stroke="none" 
	d="
M149.090698,174.581207 
	C149.973526,174.109360 150.806335,174.076431 151.639130,174.076447 
	C371.743378,174.078705 591.847595,174.083237 812.405640,174.107361 
	C812.915955,176.124435 813.021973,178.121887 813.022095,180.119339 
	C813.029907,312.773926 813.029297,445.428497 813.028625,578.083069 
	C813.028564,584.991333 813.025085,584.994202 805.927490,584.994202 
	C589.280579,584.994690 372.633636,584.994751 155.986694,584.994202 
	C148.974457,584.994202 148.971359,584.990845 148.971329,577.997314 
	C148.970703,445.342743 148.970596,312.688171 148.973755,180.033600 
	C148.973801,178.367569 149.017410,176.701523 149.090698,174.581207 
M763.995422,507.034851 
	C763.998718,420.738220 763.949158,334.441437 764.134583,248.145203 
	C764.145874,242.876495 762.549988,241.888565 757.667419,241.900970 
	C695.027710,242.060226 632.387451,242.006149 569.747375,242.006149 
	C447.799103,242.006165 325.850830,242.016418 203.902603,241.957809 
	C200.154114,241.956009 197.869492,242.037720 197.879486,247.075424 
	C198.051926,334.038086 198.018860,421.001160 198.601791,508.573334 
	C200.075928,508.725098 201.550064,509.009644 203.024216,509.009796 
	C388.286438,509.029663 573.548706,509.031525 758.810913,508.984619 
	C760.530396,508.984192 762.249695,508.319244 763.995422,507.034851 
M440.963470,557.379883 
	C440.963470,559.313232 440.963470,561.246521 440.963470,563.664368 
	C444.105164,563.664368 446.829712,564.146057 449.274719,563.525818 
	C451.613342,562.932556 454.616913,561.672791 455.549194,559.813782 
	C456.365601,558.185791 454.711792,555.318970 454.049438,552.588135 
	C454.123444,550.947327 455.205536,547.922729 454.146698,546.552185 
	C450.789612,542.206909 445.814362,544.368408 440.963440,544.209656 
	C440.963440,548.538513 440.963440,552.475159 440.963470,557.379883 
M444.597229,215.911057 
	C446.089722,215.908722 447.729645,216.303757 449.042358,215.816818 
	C451.377808,214.950455 454.588562,214.048080 455.431152,212.231918 
	C456.260742,210.443817 454.605621,207.502945 454.216064,205.823624 
	C454.216064,202.980270 455.152771,199.928421 454.042511,198.638794 
	C450.545837,194.577179 445.664154,196.491440 440.972992,196.244324 
	C440.972992,202.278305 440.828186,207.584656 441.095581,212.870178 
	C441.148834,213.923019 442.778564,214.896133 444.597229,215.911057 
M496.698944,199.848663 
	C496.380676,198.251709 496.062408,196.654755 495.744141,195.057785 
	C495.236664,195.142960 494.729187,195.228134 494.221710,195.313293 
	C494.060181,197.368164 493.898682,199.423019 493.829803,200.299332 
	C490.685547,201.037277 486.358551,200.945084 485.723938,202.430435 
	C484.368866,205.602188 483.763916,210.034103 484.950897,213.150101 
	C487.192474,219.034836 492.528412,214.166855 496.698669,215.699905 
	C496.698669,210.320328 496.698669,205.544724 496.698944,199.848663 
M496.699127,553.482544 
	C496.086090,550.023621 497.978821,546.041260 494.207977,543.141418 
	C494.046967,545.195862 493.885956,547.250244 493.830505,547.957703 
	C490.618958,548.756165 486.226044,548.776489 485.722198,550.186523 
	C484.499603,553.608032 484.182159,557.942505 485.203461,561.407043 
	C486.182739,564.728882 489.739471,564.406433 492.837952,562.934143 
	C493.638519,562.553711 494.986023,563.324463 496.698792,563.702393 
	C496.698792,560.306335 496.698792,557.374084 496.699127,553.482544 
M500.243988,551.892029 
	C500.190735,554.502502 499.253143,557.590332 500.332336,559.589417 
	C501.416382,561.597473 504.367554,563.143555 506.773865,563.691650 
	C508.273041,564.033081 510.279327,562.148010 512.057983,561.262146 
	C511.867523,560.879700 511.677063,560.497192 511.486572,560.114746 
	C504.359802,562.684082 503.527069,562.402039 503.013489,557.017151 
	C506.241547,556.857971 509.461761,556.699280 514.592896,556.446289 
	C512.140015,553.116333 510.962524,550.252075 508.829163,548.928528 
	C505.881226,547.099548 502.752350,548.233215 500.243988,551.892029 
M458.955597,558.626892 
	C461.035187,563.415649 464.144897,565.024658 468.137268,563.377502 
	C471.886414,561.830688 473.486908,556.083740 471.391632,551.691895 
	C469.888672,548.541504 465.880035,547.261841 462.420197,548.875977 
	C458.411774,550.746033 458.723053,554.350403 458.955597,558.626892 
M499.649597,209.169479 
	C499.897064,212.871414 501.389313,215.531723 505.435638,216.005783 
	C508.877655,216.409042 510.265320,215.588882 511.550903,212.455170 
	C503.956543,214.839508 503.267487,214.584396 502.964783,208.781311 
	C506.213959,208.781311 509.438568,208.781311 512.815308,208.781311 
	C512.771484,203.943741 511.362366,200.791565 506.440674,200.603149 
	C502.130859,200.438156 500.271423,202.629211 499.649597,209.169479 
M460.098572,202.920853 
	C457.415558,209.641785 459.006500,215.533829 463.981232,215.785919 
	C466.329041,215.904877 470.482910,214.325195 470.841095,212.810913 
	C471.625092,209.496338 471.607605,205.023239 469.877045,202.338531 
	C467.903534,199.276932 463.750916,199.925980 460.098572,202.920853 
M475.051300,552.037170 
	C475.162079,555.909729 475.272827,559.782288 475.383606,563.654846 
	C475.975769,563.678772 476.567932,563.702698 477.160095,563.726624 
	C479.415710,559.035095 475.210541,551.997253 482.219208,548.781555 
	C479.869873,550.404114 475.900299,546.068542 475.051300,552.037170 
M475.052765,204.740814 
	C475.156128,208.462296 475.259491,212.183777 475.362854,215.905258 
	C475.906006,215.915253 476.449158,215.925232 476.992310,215.935226 
	C479.774933,211.516022 474.769043,204.101746 482.335297,201.158569 
	C479.990570,202.959045 475.684662,198.004303 475.052765,204.740814 
M516.451294,548.776550 
	C516.451294,553.706726 516.451294,558.636902 516.451294,563.567139 
	C516.894043,563.642151 517.336792,563.717163 517.779541,563.792175 
	C520.529297,559.214111 515.625977,551.714478 522.737610,548.618713 
	C520.899353,548.618713 519.061096,548.618713 516.451294,548.776550 
M518.712646,212.174530 
	C518.826782,208.117172 517.693909,203.574860 522.867188,201.121643 
	C520.651489,201.121643 518.435852,201.121643 516.357178,201.121643 
	C516.357178,206.243561 516.357178,210.954941 516.357178,215.666321 
	C516.757935,215.772598 517.158691,215.878876 517.559448,215.985153 
	C517.942505,215.003006 518.325623,214.020859 518.712646,212.174530 
z"/>
<path fill="#53B8B9" opacity="1.000000" stroke="none" 
	d="
M497.989929,622.000427 
	C498.226990,624.317017 499.054810,626.814819 498.504242,628.958496 
	C498.090607,630.568970 495.906433,631.724670 494.510468,633.082764 
	C493.429047,631.653931 491.683197,630.349609 491.387848,628.773560 
	C490.407471,623.541809 492.420563,621.608215 497.669189,622.261841 
	C498.047302,622.028564 497.988556,622.029480 497.989929,622.000427 
z"/>
<path fill="#58C3C6" opacity="1.000000" stroke="none" 
	d="
M497.991150,633.986694 
	C498.205353,633.824890 498.404327,633.641663 498.603271,633.458435 
	C498.510468,633.714661 498.417633,633.970886 498.137268,634.073486 
	C497.949768,633.919861 497.975922,633.965393 497.991150,633.986694 
z"/>
<path fill="#53B8B9" opacity="1.000000" stroke="none" 
	d="
M470.993774,627.821533 
	C471.796295,628.916687 472.705231,630.816895 472.474792,630.966919 
	C471.072021,631.880188 469.444855,632.547913 467.806824,632.921875 
	C467.454987,633.002258 466.751038,631.540588 466.209290,630.789246 
	C467.664032,629.798706 469.118805,628.808167 470.993774,627.821533 
z"/>
<path fill="#53B8B9" opacity="1.000000" stroke="none" 
	d="
M472.640747,122.272446 
	C472.742432,123.580856 472.847290,125.125664 472.179810,125.613258 
	C470.997681,126.476830 469.361420,126.957214 467.882629,127.044182 
	C467.379608,127.073753 466.149658,124.844620 466.326263,124.656540 
	C467.323883,123.594170 468.578766,122.701225 469.891144,122.037544 
	C470.530182,121.714371 471.484436,122.014603 472.640747,122.272446 
z"/>
<path fill="#53B8B9" opacity="1.000000" stroke="none" 
	d="
M497.563477,126.062561 
	C494.151489,128.087006 492.060547,127.377350 491.340271,123.614380 
	C490.459412,119.012444 491.972656,116.578438 496.424133,116.163208 
	C499.099274,119.204109 499.481720,122.376900 497.563477,126.062561 
z"/>
<path fill="#5D8BB4" opacity="1.000000" stroke="none" 
	d="
M763.969116,507.964539 
	C762.249695,508.319244 760.530396,508.984192 758.810913,508.984619 
	C573.548706,509.031525 388.286438,509.029663 203.024216,509.009796 
	C201.550064,509.009644 200.075928,508.725098 198.565979,508.130402 
	C198.752167,507.378998 198.974182,507.070526 199.642456,506.853516 
	C201.752213,506.993530 203.415726,507.084595 205.079254,507.084656 
	C388.996857,507.091095 572.914429,507.091736 756.832031,507.077118 
	C758.822571,507.076965 760.813110,506.871857 762.949219,507.009064 
	C763.386169,507.491974 763.677612,507.728271 763.969116,507.964539 
z"/>
<path fill="#3869A6" opacity="1.000000" stroke="none" 
	d="
M199.196198,506.762024 
	C198.974182,507.070526 198.752167,507.378998 198.280457,507.825806 
	C198.018860,421.001160 198.051926,334.038086 197.879486,247.075424 
	C197.869492,242.037720 200.154114,241.956009 203.902603,241.957809 
	C325.850830,242.016418 447.799103,242.006165 569.747375,242.006149 
	C632.387451,242.006149 695.027710,242.060226 757.667419,241.900970 
	C762.549988,241.888565 764.145874,242.876495 764.134583,248.145203 
	C763.949158,334.441437 763.998718,420.738220 763.982300,507.499695 
	C763.677612,507.728271 763.386169,507.491974 762.960632,506.559265 
	C762.826538,418.453125 762.826538,331.043396 762.826538,243.530731 
	C574.612122,243.530731 387.105652,243.530731 199.196182,243.530731 
	C199.196182,331.532990 199.196182,419.147491 199.196198,506.762024 
z"/>
<path fill="#10171E" opacity="1.000000" stroke="none" 
	d="
M440.963440,556.895874 
	C440.963440,552.475159 440.963440,548.538513 440.963440,544.209656 
	C445.814362,544.368408 450.789612,542.206909 454.146698,546.552185 
	C455.205536,547.922729 454.123444,550.947327 454.049438,552.588135 
	C454.711792,555.318970 456.365601,558.185791 455.549194,559.813782 
	C454.616913,561.672791 451.613342,562.932556 449.274719,563.525818 
	C446.829712,564.146057 444.105164,563.664368 440.963470,563.664368 
	C440.963470,561.246521 440.963470,559.313232 440.963440,556.895874 
M447.410950,561.224304 
	C449.267639,560.538574 451.220581,560.018311 452.905670,559.037720 
	C453.274963,558.822815 452.947205,556.143372 452.502655,556.005005 
	C449.878784,555.188049 447.125610,554.786377 444.415985,554.244873 
	C443.977295,554.845642 443.538605,555.446411 443.099915,556.047180 
	C444.227661,557.770752 445.355408,559.494324 447.410950,561.224304 
M449.118713,552.076233 
	C450.065491,550.844910 451.012268,549.613586 451.959106,548.382324 
	C449.502350,547.465027 447.045593,546.547729 444.140991,545.463257 
	C444.140991,548.511292 444.140991,550.097839 444.140991,552.141052 
	C445.678192,552.141052 446.959656,552.141052 449.118713,552.076233 
z"/>
<path fill="#0F151B" opacity="1.000000" stroke="none" 
	d="
M444.139282,215.908539 
	C442.778564,214.896133 441.148834,213.923019 441.095581,212.870178 
	C440.828186,207.584656 440.972992,202.278305 440.972992,196.244324 
	C445.664154,196.491440 450.545837,194.577179 454.042511,198.638794 
	C455.152771,199.928421 454.216064,202.980270 454.216064,205.823624 
	C454.605621,207.502945 456.260742,210.443817 455.431152,212.231918 
	C454.588562,214.048080 451.377808,214.950455 449.042358,215.816818 
	C447.729645,216.303757 446.089722,215.908722 444.139282,215.908539 
M451.789276,207.399902 
	C449.242615,207.203735 446.695953,207.007584 444.214355,206.816437 
	C444.214355,209.512268 444.214355,211.428421 444.214355,213.301697 
	C452.197296,214.122025 453.555908,213.197693 451.789276,207.399902 
M446.454895,198.425064 
	C441.959778,199.118256 444.272095,202.033691 444.047852,206.121674 
	C447.457336,204.328140 451.089264,203.615814 451.781403,201.789459 
	C453.002136,198.568100 449.445709,198.795441 446.454895,198.425064 
z"/>
<path fill="#121A22" opacity="1.000000" stroke="none" 
	d="
M496.698792,200.308899 
	C496.698669,205.544724 496.698669,210.320328 496.698669,215.699905 
	C492.528412,214.166855 487.192474,219.034836 484.950897,213.150101 
	C483.763916,210.034103 484.368866,205.602188 485.723938,202.430435 
	C486.358551,200.945084 490.685547,201.037277 493.829803,200.299332 
	C493.898682,199.423019 494.060181,197.368164 494.221710,195.313293 
	C494.729187,195.228134 495.236664,195.142960 495.744141,195.057785 
	C496.062408,196.654755 496.380676,198.251709 496.698792,200.308899 
M493.921173,208.370041 
	C493.811829,205.656052 493.719788,202.501144 490.041107,202.906570 
	C488.801117,203.043228 486.929993,205.797592 486.977386,207.304337 
	C487.047394,209.532700 488.057037,213.040878 489.587830,213.636505 
	C492.607971,214.811630 493.581848,211.861710 493.921173,208.370041 
z"/>
<path fill="#121A22" opacity="1.000000" stroke="none" 
	d="
M496.698975,553.962158 
	C496.698792,557.374084 496.698792,560.306335 496.698792,563.702393 
	C494.986023,563.324463 493.638519,562.553711 492.837952,562.934143 
	C489.739471,564.406433 486.182739,564.728882 485.203461,561.407043 
	C484.182159,557.942505 484.499603,553.608032 485.722198,550.186523 
	C486.226044,548.776489 490.618958,548.756165 493.830505,547.957703 
	C493.885956,547.250244 494.046967,545.195862 494.207977,543.141418 
	C497.978821,546.041260 496.086090,550.023621 496.698975,553.962158 
M492.500702,551.179077 
	C490.990997,551.175659 488.297272,550.807007 488.167114,551.229065 
	C487.420319,553.650452 486.975708,556.272827 487.086060,558.798279 
	C487.130890,559.824097 488.768433,561.479065 489.797211,561.572632 
	C490.894348,561.672424 492.999939,560.396423 493.135925,559.491272 
	C493.511047,556.994751 493.087311,554.378113 492.500702,551.179077 
z"/>
<path fill="#10171E" opacity="1.000000" stroke="none" 
	d="
M500.443420,551.567993 
	C502.752350,548.233215 505.881226,547.099548 508.829163,548.928528 
	C510.962524,550.252075 512.140015,553.116333 514.592896,556.446289 
	C509.461761,556.699280 506.241547,556.857971 503.013489,557.017151 
	C503.527069,562.402039 504.359802,562.684082 511.486572,560.114746 
	C511.677063,560.497192 511.867523,560.879700 512.057983,561.262146 
	C510.279327,562.148010 508.273041,564.033081 506.773865,563.691650 
	C504.367554,563.143555 501.416382,561.597473 500.332336,559.589417 
	C499.253143,557.590332 500.190735,554.502502 500.443420,551.567993 
M508.813660,554.691223 
	C508.912781,553.625854 509.449066,551.904541 509.026001,551.622620 
	C507.920105,550.885498 506.198303,550.202393 505.091736,550.580322 
	C503.977448,550.960815 503.308472,552.645264 501.672333,554.752930 
	C504.754303,554.752930 506.383423,554.752930 508.813660,554.691223 
z"/>
<path fill="#10171E" opacity="1.000000" stroke="none" 
	d="
M458.916504,558.252075 
	C458.723053,554.350403 458.411774,550.746033 462.420197,548.875977 
	C465.880035,547.261841 469.888672,548.541504 471.391632,551.691895 
	C473.486908,556.083740 471.886414,561.830688 468.137268,563.377502 
	C464.144897,565.024658 461.035187,563.415649 458.916504,558.252075 
M461.576172,556.442566 
	C461.851074,559.161255 462.192566,562.471375 465.807220,561.579712 
	C467.321655,561.206238 469.011688,558.011963 469.027252,556.087097 
	C469.042847,554.158203 467.403076,550.920654 465.902893,550.534851 
	C462.395233,549.632629 461.783691,552.779968 461.576172,556.442566 
z"/>
<path fill="#081212" opacity="1.000000" stroke="none" 
	d="
M499.625214,208.791626 
	C500.271423,202.629211 502.130859,200.438156 506.440674,200.603149 
	C511.362366,200.791565 512.771484,203.943741 512.815308,208.781311 
	C509.438568,208.781311 506.213959,208.781311 502.964783,208.781311 
	C503.267487,214.584396 503.956543,214.839508 511.550903,212.455170 
	C510.265320,215.588882 508.877655,216.409042 505.435638,216.005783 
	C501.389313,215.531723 499.897064,212.871414 499.625214,208.791626 
M505.766907,202.474655 
	C504.508728,203.593552 503.250549,204.712433 501.048584,206.670639 
	C505.095184,206.670639 507.452087,206.670639 509.808960,206.670639 
	C510.038940,206.274170 510.268951,205.877716 510.498932,205.481247 
	C509.166412,204.464554 507.833862,203.447861 505.766907,202.474655 
z"/>
<path fill="#0E1319" opacity="1.000000" stroke="none" 
	d="
M460.351105,202.619263 
	C463.750916,199.925980 467.903534,199.276932 469.877045,202.338531 
	C471.607605,205.023239 471.625092,209.496338 470.841095,212.810913 
	C470.482910,214.325195 466.329041,215.904877 463.981232,215.785919 
	C459.006500,215.533829 457.415558,209.641785 460.351105,202.619263 
M461.879181,211.069763 
	C463.175385,212.049469 464.357117,213.425476 465.814667,213.846390 
	C466.575439,214.066116 468.492004,212.769119 468.712524,211.869415 
	C469.209351,209.842743 469.387268,207.532211 468.882629,205.543274 
	C468.582428,204.360184 466.759186,202.835098 465.586212,202.804962 
	C464.392090,202.774292 462.649048,204.145203 462.072052,205.346893 
	C461.418793,206.707489 461.794708,208.562256 461.879181,211.069763 
z"/>
<path fill="#121A22" opacity="1.000000" stroke="none" 
	d="
M475.047943,551.613770 
	C475.900299,546.068542 479.869873,550.404114 482.219208,548.781555 
	C475.210541,551.997253 479.415710,559.035095 477.160095,563.726624 
	C476.567932,563.702698 475.975769,563.678772 475.383606,563.654846 
	C475.272827,559.782288 475.162079,555.909729 475.047943,551.613770 
z"/>
<path fill="#121A22" opacity="1.000000" stroke="none" 
	d="
M475.051422,204.282211 
	C475.684662,198.004303 479.990570,202.959045 482.335297,201.158569 
	C474.769043,204.101746 479.774933,211.516022 476.992310,215.935226 
	C476.449158,215.925232 475.906006,215.915253 475.362854,215.905258 
	C475.259491,212.183777 475.156128,208.462296 475.051422,204.282211 
z"/>
<path fill="#121A22" opacity="1.000000" stroke="none" 
	d="
M516.837036,548.697632 
	C519.061096,548.618713 520.899353,548.618713 522.737610,548.618713 
	C515.625977,551.714478 520.529297,559.214111 517.779541,563.792175 
	C517.336792,563.717163 516.894043,563.642151 516.451294,563.567139 
	C516.451294,558.636902 516.451294,553.706726 516.837036,548.697632 
z"/>
<path fill="#0E1319" opacity="1.000000" stroke="none" 
	d="
M518.710693,212.606628 
	C518.325623,214.020859 517.942505,215.003006 517.559448,215.985153 
	C517.158691,215.878876 516.757935,215.772598 516.357178,215.666321 
	C516.357178,210.954941 516.357178,206.243561 516.357178,201.121643 
	C518.435852,201.121643 520.651489,201.121643 522.867188,201.121643 
	C517.693909,203.574860 518.826782,208.117172 518.710693,212.606628 
z"/>
<path fill="#BDE2D3" opacity="1.000000" stroke="none" 
	d="
M199.642426,506.853485 
	C199.196182,419.147491 199.196182,331.532990 199.196182,243.530731 
	C387.105652,243.530731 574.612122,243.530731 762.826538,243.530731 
	C762.826538,331.043396 762.826538,418.453125 762.815063,506.312622 
	C760.813110,506.871857 758.822571,507.076965 756.832031,507.077118 
	C572.914429,507.091736 388.996857,507.091095 205.079254,507.084656 
	C203.415726,507.084595 201.752213,506.993530 199.642426,506.853485 
M506.328613,466.686646 
	C505.136871,464.320099 503.880280,464.176056 503.676117,467.003571 
	C503.393372,470.920013 503.601196,474.877350 503.746460,478.811768 
	C503.763397,479.269501 504.716644,479.692719 505.366974,480.242889 
	C506.043335,475.725830 506.659515,471.610962 507.855865,467.334625 
	C508.220734,467.162109 508.585602,466.989594 509.777679,466.940430 
	C510.827423,468.265076 512.551086,469.481201 512.785400,470.937073 
	C513.259827,473.884430 512.926941,476.961700 512.926941,479.985413 
	C513.668640,479.991913 514.410339,479.998413 515.152039,480.004913 
	C515.310608,476.792572 515.708984,473.570038 515.573486,470.370148 
	C515.351501,465.128998 513.559570,464.113831 507.646484,465.844025 
	C507.425507,466.223755 507.204529,466.603455 506.328613,466.686646 
M490.206451,466.105469 
	C487.401672,464.349426 484.623047,464.005768 482.258362,466.726654 
	C480.126282,469.179932 480.045013,477.274567 482.611267,478.644440 
	C484.525208,479.666138 487.457672,478.779846 490.729553,478.860321 
	C492.535706,480.717224 493.487793,480.386780 493.488129,477.760406 
	C493.488831,472.439209 493.524780,467.116669 493.399567,461.798157 
	C493.380249,460.977142 492.582581,460.174500 492.144867,459.363342 
	C491.767853,459.476715 491.390839,459.590088 491.013824,459.703430 
	C491.013824,461.821228 491.013824,463.938995 490.206451,466.105469 
M473.464508,465.494995 
	C470.546967,464.367920 467.075134,464.245331 466.358551,467.492676 
	C465.573059,471.052429 466.294495,475.091431 467.170807,478.725861 
	C467.315735,479.326996 471.616119,478.926178 474.790192,479.123138 
	C476.340881,480.133606 477.916779,481.052765 477.935059,477.989929 
	C477.968506,472.392120 477.959991,466.793274 477.865875,461.196625 
	C477.855591,460.586395 477.168854,459.987549 476.296631,458.574677 
	C475.350464,461.637970 474.663452,463.862244 473.464508,465.494995 
M489.909637,276.967133 
	C489.909637,276.967133 489.981934,276.972321 489.796570,276.259399 
	C487.057709,274.399353 483.515808,274.267822 482.515167,277.145111 
	C481.327026,280.561493 481.652588,284.764404 482.389771,288.410706 
	C482.578369,289.343506 486.776764,289.557892 489.160736,289.918823 
	C490.513000,290.123535 491.921661,289.955811 493.286530,289.955811 
	C494.161987,276.790253 493.822815,272.191895 491.645477,269.743866 
	C491.040344,272.238068 490.475464,274.566376 489.909637,276.967133 
M343.500000,423.003723 
	C443.903198,423.003723 544.306396,423.003723 645.269531,423.003723 
	C645.269531,420.332733 645.269531,418.375336 645.269531,416.417938 
	C645.269531,388.427246 645.270386,360.436584 645.269043,332.445892 
	C645.268677,325.204559 645.265503,325.188568 637.743774,325.187927 
	C583.261902,325.183105 528.780029,325.185242 474.298187,325.185303 
	C423.981598,325.185364 373.665039,325.179443 323.348450,325.193176 
	C316.740814,325.194977 316.732605,325.241852 316.731842,331.854248 
	C316.728485,360.178162 316.724579,388.502045 316.743317,416.825958 
	C316.744598,418.746521 316.930481,420.666962 317.052216,423.003723 
	C325.896881,423.003723 334.198456,423.003723 343.500000,423.003723 
M529.904297,294.226105 
	C530.484863,288.048828 531.065430,281.871552 531.641541,275.741577 
	C529.261475,275.741577 527.781494,276.032990 526.468018,275.688873 
	C521.874573,274.485596 519.469543,275.905762 518.712341,280.537811 
	C517.414978,288.474609 520.192932,291.192780 528.721008,289.630432 
	C528.177673,291.070892 527.811340,293.173798 527.298401,293.210175 
	C524.815125,293.386292 522.292419,293.007355 519.853394,292.830200 
	C521.658691,296.670959 523.946106,297.187256 529.904297,294.226105 
M431.776062,472.377777 
	C431.776062,474.934326 431.776062,477.490875 431.776062,480.047424 
	C432.511414,480.067505 433.246735,480.087585 433.982086,480.107697 
	C434.211731,477.719666 434.441376,475.331635 434.662231,473.035187 
	C444.931366,471.518585 447.305054,470.070496 446.809479,465.793152 
	C446.262360,461.070862 441.864868,459.656555 431.776123,461.147888 
	C431.776123,464.530548 431.776123,467.985657 431.776062,472.377777 
M531.129639,479.112579 
	C531.129639,474.490967 531.129639,469.869354 531.129639,465.614319 
	C527.493958,465.614319 523.249573,464.375702 521.475830,465.939484 
	C519.429932,467.743134 518.744629,472.066040 518.922363,475.212799 
	C519.292236,481.761292 524.361633,480.030121 528.574463,479.198944 
	C527.617126,487.419800 522.708923,482.142151 519.251587,482.970215 
	C521.437256,484.516968 523.816833,485.796906 526.167664,485.746185 
	C529.390564,485.676636 531.092163,483.338806 531.129639,479.112579 
M433.387177,290.223755 
	C433.884125,287.911011 434.381104,285.598297 434.881744,283.268311 
	C444.862061,281.960052 447.180664,280.604553 446.817902,276.266663 
	C446.418793,271.494263 442.749054,270.229218 431.431641,271.314514 
	C431.835510,277.585175 432.242371,283.902496 433.387177,290.223755 
M477.937378,286.934326 
	C477.937378,281.286835 477.937378,275.639374 477.937378,269.991882 
	C477.271881,269.909302 476.606354,269.826691 475.940857,269.744110 
	C475.502899,271.806580 475.064941,273.869019 474.903473,274.629456 
	C471.723511,275.531982 467.397949,275.664215 466.891022,277.123260 
	C465.702179,280.544830 465.288391,284.982330 466.491913,288.310272 
	C468.217255,293.081329 473.158142,288.859070 476.466888,290.116882 
	C476.640289,290.182800 477.437653,288.607269 477.937378,286.934326 
M454.151245,275.207367 
	C452.789276,276.194275 451.427307,277.181152 450.065308,278.168030 
	C453.527679,279.008026 457.361176,274.066895 459.229523,280.559479 
	C456.565002,281.080505 453.949829,280.971680 452.170197,282.137878 
	C450.769501,283.055756 449.602783,285.653961 449.826202,287.303406 
	C450.001312,288.596222 452.409485,290.427734 453.921234,290.524414 
	C457.136169,290.730011 460.413391,289.962158 462.859680,289.684662 
	C462.573181,287.422455 462.056335,284.842010 461.956329,282.245483 
	C461.735046,276.500458 460.749939,275.406250 454.151245,275.207367 
M449.771362,477.703888 
	C451.050507,478.546600 452.314362,480.070496 453.611755,480.099609 
	C457.002594,480.175690 460.408142,479.597992 462.845642,479.370697 
	C462.550781,476.668091 462.658752,473.617035 461.779785,470.883270 
	C461.079407,468.704895 459.558746,465.877228 457.714600,465.194122 
	C454.966217,464.176056 451.405151,464.368622 450.204041,468.636200 
	C453.047363,469.978821 457.638336,462.757599 459.125275,470.534332 
	C454.997711,471.563202 449.013580,469.628113 449.771362,477.703888 
M515.602295,280.976349 
	C515.305237,270.835175 507.726227,277.644501 504.381592,275.862549 
	C504.381592,280.729797 504.381592,285.503571 504.381592,290.277313 
	C504.975372,290.265259 505.569122,290.253174 506.162903,290.241119 
	C506.162903,287.205353 505.698059,284.064911 506.348846,281.175751 
	C506.701630,279.609528 508.955353,278.471497 510.351593,277.140320 
	C511.217285,278.513275 512.638245,279.812653 512.831909,281.274628 
	C513.223450,284.228821 512.948669,287.271301 512.948669,290.277374 
	C513.762146,290.294525 514.575623,290.311646 515.389160,290.328766 
	C515.462769,287.495972 515.536377,284.663208 515.602295,280.976349 
M497.047943,278.008972 
	C497.041077,289.010925 497.041077,289.010925 499.892426,290.422241 
	C499.892426,285.719086 499.944336,281.308868 499.825378,276.903290 
	C499.810822,276.364410 498.879974,275.850281 498.373749,275.324707 
	C497.936768,275.927460 497.499817,276.530243 497.047943,278.008972 
M497.045959,473.455048 
	C497.143707,475.639069 497.241486,477.823090 497.361176,480.496521 
	C501.030304,477.467010 500.774963,466.796387 497.045959,464.912842 
	C497.045959,467.658875 497.045959,470.086243 497.045959,473.455048 
z"/>
<path fill="#6E99C7" opacity="1.000000" stroke="none" 
	d="
M446.947052,561.221069 
	C445.355408,559.494324 444.227661,557.770752 443.099915,556.047180 
	C443.538605,555.446411 443.977295,554.845642 444.415985,554.244873 
	C447.125610,554.786377 449.878784,555.188049 452.502655,556.005005 
	C452.947205,556.143372 453.274963,558.822815 452.905670,559.037720 
	C451.220581,560.018311 449.267639,560.538574 446.947052,561.221069 
z"/>
<path fill="#6E99C7" opacity="1.000000" stroke="none" 
	d="
M448.679932,552.108643 
	C446.959656,552.141052 445.678192,552.141052 444.140991,552.141052 
	C444.140991,550.097839 444.140991,548.511292 444.140991,545.463257 
	C447.045593,546.547729 449.502350,547.465027 451.959106,548.382324 
	C451.012268,549.613586 450.065491,550.844910 448.679932,552.108643 
z"/>
<path fill="#6E99C7" opacity="1.000000" stroke="none" 
	d="
M452.124512,207.681854 
	C453.555908,213.197693 452.197296,214.122025 444.214355,213.301697 
	C444.214355,211.428421 444.214355,209.512268 444.214355,206.816437 
	C446.695953,207.007584 449.242615,207.203735 452.124512,207.681854 
z"/>
<path fill="#6790BB" opacity="1.000000" stroke="none" 
	d="
M446.864258,198.427856 
	C449.445709,198.795441 453.002136,198.568100 451.781403,201.789459 
	C451.089264,203.615814 447.457336,204.328140 444.047852,206.121674 
	C444.272095,202.033691 441.959778,199.118256 446.864258,198.427856 
z"/>
<path fill="#6E99C7" opacity="1.000000" stroke="none" 
	d="
M493.902039,208.784805 
	C493.581848,211.861710 492.607971,214.811630 489.587830,213.636505 
	C488.057037,213.040878 487.047394,209.532700 486.977386,207.304337 
	C486.929993,205.797592 488.801117,203.043228 490.041107,202.906570 
	C493.719788,202.501144 493.811829,205.656052 493.902039,208.784805 
z"/>
<path fill="#6E99C7" opacity="1.000000" stroke="none" 
	d="
M492.740112,551.494019 
	C493.087311,554.378113 493.511047,556.994751 493.135925,559.491272 
	C492.999939,560.396423 490.894348,561.672424 489.797211,561.572632 
	C488.768433,561.479065 487.130890,559.824097 487.086060,558.798279 
	C486.975708,556.272827 487.420319,553.650452 488.167114,551.229065 
	C488.297272,550.807007 490.990997,551.175659 492.740112,551.494019 
z"/>
<path fill="#5D8BB4" opacity="1.000000" stroke="none" 
	d="
M508.413086,554.722046 
	C506.383423,554.752930 504.754303,554.752930 501.672333,554.752930 
	C503.308472,552.645264 503.977448,550.960815 505.091736,550.580322 
	C506.198303,550.202393 507.920105,550.885498 509.026001,551.622620 
	C509.449066,551.904541 508.912781,553.625854 508.413086,554.722046 
z"/>
<path fill="#6E99C7" opacity="1.000000" stroke="none" 
	d="
M461.575897,556.016541 
	C461.783691,552.779968 462.395233,549.632629 465.902893,550.534851 
	C467.403076,550.920654 469.042847,554.158203 469.027252,556.087097 
	C469.011688,558.011963 467.321655,561.206238 465.807220,561.579712 
	C462.192566,562.471375 461.851074,559.161255 461.575897,556.016541 
z"/>
<path fill="#6790BB" opacity="1.000000" stroke="none" 
	d="
M506.134125,202.452911 
	C507.833862,203.447861 509.166412,204.464554 510.498932,205.481247 
	C510.268951,205.877716 510.038940,206.274170 509.808960,206.670639 
	C507.452087,206.670639 505.095184,206.670639 501.048584,206.670639 
	C503.250549,204.712433 504.508728,203.593552 506.134125,202.452911 
z"/>
<path fill="#6E99C7" opacity="1.000000" stroke="none" 
	d="
M461.801147,210.635956 
	C461.794708,208.562256 461.418793,206.707489 462.072052,205.346893 
	C462.649048,204.145203 464.392090,202.774292 465.586212,202.804962 
	C466.759186,202.835098 468.582428,204.360184 468.882629,205.543274 
	C469.387268,207.532211 469.209351,209.842743 468.712524,211.869415 
	C468.492004,212.769119 466.575439,214.066116 465.814667,213.846390 
	C464.357117,213.425476 463.175385,212.049469 461.801147,210.635956 
z"/>
<path fill="#547FB1" opacity="1.000000" stroke="none" 
	d="
M343.000000,423.003723 
	C334.198456,423.003723 325.896881,423.003723 317.052216,423.003723 
	C316.930481,420.666962 316.744598,418.746521 316.743317,416.825958 
	C316.724579,388.502045 316.728485,360.178162 316.731842,331.854248 
	C316.732605,325.241852 316.740814,325.194977 323.348450,325.193176 
	C373.665039,325.179443 423.981598,325.185364 474.298187,325.185303 
	C528.780029,325.185242 583.261902,325.183105 637.743774,325.187927 
	C645.265503,325.188568 645.268677,325.204559 645.269043,332.445892 
	C645.270386,360.436584 645.269531,388.427246 645.269531,416.417938 
	C645.269531,418.375336 645.269531,420.332733 645.269531,423.003723 
	C544.306396,423.003723 443.903198,423.003723 343.000000,423.003723 
M449.500000,326.979797 
	C405.766144,326.979797 362.032288,326.979797 318.340576,326.979797 
	C318.340576,358.785339 318.340576,389.861237 318.340576,420.922729 
	C426.994080,420.922729 535.323303,420.922729 643.656982,420.922729 
	C643.656982,389.450195 643.656982,358.388977 643.656982,326.979767 
	C579.054260,326.979767 514.777100,326.979767 449.500000,326.979797 
z"/>
<path fill="#141716" opacity="1.000000" stroke="none" 
	d="
M529.613953,294.533875 
	C523.946106,297.187256 521.658691,296.670959 519.853394,292.830200 
	C522.292419,293.007355 524.815125,293.386292 527.298401,293.210175 
	C527.811340,293.173798 528.177673,291.070892 528.721008,289.630432 
	C520.192932,291.192780 517.414978,288.474609 518.712341,280.537811 
	C519.469543,275.905762 521.874573,274.485596 526.468018,275.688873 
	C527.781494,276.032990 529.261475,275.741577 531.641541,275.741577 
	C531.065430,281.871552 530.484863,288.048828 529.613953,294.533875 
M521.329041,280.214935 
	C521.342651,282.024811 520.991516,283.945404 521.495544,285.606476 
	C521.843445,286.753082 523.667297,288.495300 524.316467,288.295746 
	C525.788940,287.843018 527.999268,286.370850 528.015076,285.285553 
	C528.052246,282.739685 526.977173,280.177643 526.352234,277.622131 
	C524.767761,278.233398 523.183289,278.844666 521.329041,280.214935 
z"/>
<path fill="#0C0F0E" opacity="1.000000" stroke="none" 
	d="
M431.776093,471.909271 
	C431.776123,467.985657 431.776123,464.530548 431.776123,461.147888 
	C441.864868,459.656555 446.262360,461.070862 446.809479,465.793152 
	C447.305054,470.070496 444.931366,471.518585 434.662231,473.035187 
	C434.441376,475.331635 434.211731,477.719666 433.982086,480.107697 
	C433.246735,480.087585 432.511414,480.067505 431.776062,480.047424 
	C431.776062,477.490875 431.776062,474.934326 431.776093,471.909271 
M434.936279,463.130981 
	C434.678772,465.312317 434.421265,467.493683 434.104309,470.178375 
	C436.652222,470.178375 438.750610,470.666565 440.421387,470.030823 
	C441.874847,469.477814 442.845093,467.654846 444.028839,466.393066 
	C442.755035,465.220551 441.650055,463.685120 440.154449,462.989410 
	C438.940216,462.424561 437.257172,462.867615 434.936279,463.130981 
z"/>
<path fill="#111513" opacity="1.000000" stroke="none" 
	d="
M531.118042,479.561157 
	C531.092163,483.338806 529.390564,485.676636 526.167664,485.746185 
	C523.816833,485.796906 521.437256,484.516968 519.251587,482.970215 
	C522.708923,482.142151 527.617126,487.419800 528.574463,479.198944 
	C524.361633,480.030121 519.292236,481.761292 518.922363,475.212799 
	C518.744629,472.066040 519.429932,467.743134 521.475830,465.939484 
	C523.249573,464.375702 527.493958,465.614319 531.129639,465.614319 
	C531.129639,469.869354 531.129639,474.490967 531.118042,479.561157 
M528.632690,471.731201 
	C527.470093,470.129364 526.455139,468.368042 525.030579,467.049133 
	C524.714294,466.756317 522.127380,467.884216 522.007263,468.597473 
	C521.583435,471.112610 521.101257,473.971252 521.908386,476.251007 
	C522.914673,479.093536 525.565125,478.831207 527.368958,476.674316 
	C528.233154,475.640961 528.276428,473.921021 528.632690,471.731201 
z"/>
<path fill="#0C0F0E" opacity="1.000000" stroke="none" 
	d="
M433.018188,290.221771 
	C432.242371,283.902496 431.835510,277.585175 431.431641,271.314514 
	C442.749054,270.229218 446.418793,271.494263 446.817902,276.266663 
	C447.180664,280.604553 444.862061,281.960052 434.881744,283.268311 
	C434.381104,285.598297 433.884125,287.911011 433.018188,290.221771 
M441.600159,280.323395 
	C442.302307,278.554260 443.004425,276.785126 443.706573,275.015991 
	C440.778381,274.139679 437.850159,273.263367 434.609100,272.293427 
	C434.609100,275.865234 434.609100,278.108521 434.609100,280.551239 
	C436.887360,280.551239 438.851044,280.551239 441.600159,280.323395 
z"/>
<path fill="#1C211F" opacity="1.000000" stroke="none" 
	d="
M477.940948,287.365112 
	C477.437653,288.607269 476.640289,290.182800 476.466888,290.116882 
	C473.158142,288.859070 468.217255,293.081329 466.491913,288.310272 
	C465.288391,284.982330 465.702179,280.544830 466.891022,277.123260 
	C467.397949,275.664215 471.723511,275.531982 474.903473,274.629456 
	C475.064941,273.869019 475.502899,271.806580 475.940857,269.744110 
	C476.606354,269.826691 477.271881,269.909302 477.937378,269.991882 
	C477.937378,275.639374 477.937378,281.286835 477.940948,287.365112 
M473.050629,277.466187 
	C468.453857,277.311371 466.667023,279.974609 468.179138,285.399719 
	C468.528625,286.653564 470.261688,288.351868 471.348877,288.345215 
	C472.522888,288.338074 474.589081,286.640869 474.671967,285.558777 
	C474.862946,283.066620 474.087646,280.500427 473.050629,277.466187 
z"/>
<path fill="#111513" opacity="1.000000" stroke="none" 
	d="
M489.910583,276.894653 
	C490.475464,274.566376 491.040344,272.238068 491.645477,269.743866 
	C493.822815,272.191895 494.161987,276.790253 493.286530,289.955811 
	C491.921661,289.955811 490.513000,290.123535 489.160736,289.918823 
	C486.776764,289.557892 482.578369,289.343506 482.389771,288.410706 
	C481.652588,284.764404 481.327026,280.561493 482.515167,277.145111 
	C483.515808,274.267822 487.057709,274.399353 489.562256,276.922607 
	C484.354095,276.843445 482.485413,279.175995 483.851776,285.049225 
	C484.170776,286.420532 485.978668,288.450134 487.009491,288.396820 
	C488.295624,288.330292 490.387085,286.527924 490.534302,285.285797 
	C490.858337,282.551788 490.179901,279.698975 489.910583,276.894653 
z"/>
<path fill="#191E1C" opacity="1.000000" stroke="none" 
	d="
M454.528564,275.154785 
	C460.749939,275.406250 461.735046,276.500458 461.956329,282.245483 
	C462.056335,284.842010 462.573181,287.422455 462.859680,289.684662 
	C460.413391,289.962158 457.136169,290.730011 453.921234,290.524414 
	C452.409485,290.427734 450.001312,288.596222 449.826202,287.303406 
	C449.602783,285.653961 450.769501,283.055756 452.170197,282.137878 
	C453.949829,280.971680 456.565002,281.080505 459.229523,280.559479 
	C457.361176,274.066895 453.527679,279.008026 450.065308,278.168030 
	C451.427307,277.181152 452.789276,276.194275 454.528564,275.154785 
M457.438812,283.036163 
	C456.467590,283.113342 455.311798,282.888641 454.570557,283.341919 
	C453.579346,283.947998 452.637421,284.971832 452.216919,286.031586 
	C452.007507,286.559387 452.892181,288.117035 453.482666,288.239288 
	C454.625000,288.475800 456.544739,288.449066 456.998108,287.768860 
	C457.847229,286.494843 457.880981,284.677399 457.438812,283.036163 
z"/>
<path fill="#191E1C" opacity="1.000000" stroke="none" 
	d="
M449.664124,477.352844 
	C449.013580,469.628113 454.997711,471.563202 459.125275,470.534332 
	C457.638336,462.757599 453.047363,469.978821 450.204041,468.636200 
	C451.405151,464.368622 454.966217,464.176056 457.714600,465.194122 
	C459.558746,465.877228 461.079407,468.704895 461.779785,470.883270 
	C462.658752,473.617035 462.550781,476.668091 462.845642,479.370697 
	C460.408142,479.597992 457.002594,480.175690 453.611755,480.099609 
	C452.314362,480.070496 451.050507,478.546600 449.664124,477.352844 
M453.006775,477.738739 
	C456.922180,478.852814 458.726776,477.227753 458.995605,472.913055 
	C455.979156,473.475769 451.662079,471.121124 453.006775,477.738739 
z"/>
<path fill="#141716" opacity="1.000000" stroke="none" 
	d="
M515.606140,281.403381 
	C515.536377,284.663208 515.462769,287.495972 515.389160,290.328766 
	C514.575623,290.311646 513.762146,290.294525 512.948669,290.277374 
	C512.948669,287.271301 513.223450,284.228821 512.831909,281.274628 
	C512.638245,279.812653 511.217285,278.513275 510.351593,277.140320 
	C508.955353,278.471497 506.701630,279.609528 506.348846,281.175751 
	C505.698059,284.064911 506.162903,287.205353 506.162903,290.241119 
	C505.569122,290.253174 504.975372,290.265259 504.381592,290.277313 
	C504.381592,285.503571 504.381592,280.729797 504.381592,275.862549 
	C507.726227,277.644501 515.305237,270.835175 515.606140,281.403381 
z"/>
<path fill="#1C211F" opacity="1.000000" stroke="none" 
	d="
M473.976410,466.086548 
	C474.663452,463.862244 475.350464,461.637970 476.296631,458.574677 
	C477.168854,459.987549 477.855591,460.586395 477.865875,461.196625 
	C477.959991,466.793274 477.968506,472.392120 477.935059,477.989929 
	C477.916779,481.052765 476.340881,480.133606 474.360901,478.726776 
	C473.911774,478.110931 473.891876,477.891449 473.993103,477.307739 
	C474.036316,473.734314 473.958405,470.525116 473.901306,467.008301 
	C473.940247,466.496002 473.958344,466.291290 473.976410,466.086548 
z"/>
<path fill="#1C211F" opacity="1.000000" stroke="none" 
	d="
M489.936554,478.743256 
	C487.457672,478.779846 484.525208,479.666138 482.611267,478.644440 
	C480.045013,477.274567 480.126282,469.179932 482.258362,466.726654 
	C484.623047,464.005768 487.401672,464.349426 490.438293,466.600830 
	C490.501221,467.419678 490.332275,467.743164 489.831177,467.848694 
	C487.858215,467.737030 484.906525,467.530609 484.794159,468.001465 
	C484.170441,470.616364 483.797638,473.481171 484.302368,476.072815 
	C484.480896,476.989777 487.375702,477.377777 489.233521,478.055115 
	C489.702026,478.239258 489.868652,478.452728 489.936554,478.743256 
z"/>
<path fill="#050606" opacity="1.000000" stroke="none" 
	d="
M490.163361,468.066620 
	C490.332275,467.743164 490.501221,467.419678 490.841980,466.576508 
	C491.013824,463.938995 491.013824,461.821228 491.013824,459.703430 
	C491.390839,459.590088 491.767853,459.476715 492.144867,459.363342 
	C492.582581,460.174500 493.380249,460.977142 493.399567,461.798157 
	C493.524780,467.116669 493.488831,472.439209 493.488129,477.760406 
	C493.487793,480.386780 492.535706,480.717224 490.333069,478.801788 
	C489.868652,478.452728 489.702026,478.239258 489.472168,477.771240 
	C489.726257,474.315247 489.944824,471.190948 490.163361,468.066620 
z"/>
<path fill="#141716" opacity="1.000000" stroke="none" 
	d="
M473.871979,477.671967 
	C473.891876,477.891449 473.911774,478.110931 473.963867,478.659393 
	C471.616119,478.926178 467.315735,479.326996 467.170807,478.725861 
	C466.294495,475.091431 465.573059,471.052429 466.358551,467.492676 
	C467.075134,464.245331 470.546967,464.367920 473.720459,465.790771 
	C473.958344,466.291290 473.940247,466.496002 473.496704,466.904480 
	C468.387360,467.079773 467.593140,468.284973 467.920593,473.926758 
	C468.167755,478.185181 470.405487,478.782471 473.871979,477.671967 
z"/>
<path fill="#1C211F" opacity="1.000000" stroke="none" 
	d="
M508.115082,465.704529 
	C513.559570,464.113831 515.351501,465.128998 515.573486,470.370148 
	C515.708984,473.570038 515.310608,476.792572 515.152039,480.004913 
	C514.410339,479.998413 513.668640,479.991913 512.926941,479.985413 
	C512.926941,476.961700 513.259827,473.884430 512.785400,470.937073 
	C512.551086,469.481201 510.827423,468.265076 509.288879,466.720459 
	C508.571716,466.235199 508.343384,465.969879 508.115082,465.704529 
z"/>
<path fill="#050606" opacity="1.000000" stroke="none" 
	d="
M507.275665,467.496063 
	C506.659515,471.610962 506.043335,475.725830 505.366974,480.242889 
	C504.716644,479.692719 503.763397,479.269501 503.746460,478.811768 
	C503.601196,474.877350 503.393372,470.920013 503.676117,467.003571 
	C503.880280,464.176056 505.136871,464.320099 506.732849,466.960999 
	C507.137054,467.235382 507.275665,467.496063 507.275665,467.496063 
z"/>
<path fill="#272727" opacity="1.000000" stroke="none" 
	d="
M497.055389,277.570984 
	C497.499817,276.530243 497.936768,275.927460 498.373718,275.324707 
	C498.879974,275.850281 499.810822,276.364410 499.825378,276.903290 
	C499.944336,281.308868 499.892426,285.719086 499.892426,290.422241 
	C497.041077,289.010925 497.041077,289.010925 497.055389,277.570984 
z"/>
<path fill="#272727" opacity="1.000000" stroke="none" 
	d="
M497.045959,472.984344 
	C497.045959,470.086243 497.045959,467.658875 497.045959,464.912842 
	C500.774963,466.796387 501.030304,477.467010 497.361176,480.496521 
	C497.241486,477.823090 497.143707,475.639069 497.045959,472.984344 
z"/>
<path fill="#050606" opacity="1.000000" stroke="none" 
	d="
M507.880798,465.774292 
	C508.343384,465.969879 508.571716,466.235199 508.875244,466.658813 
	C508.585602,466.989594 508.220734,467.162109 507.565765,467.415344 
	C507.275665,467.496063 507.137054,467.235382 507.060303,467.109283 
	C507.204529,466.603455 507.425507,466.223755 507.880798,465.774292 
z"/>
<path fill="#FEFEFE" opacity="1.000000" stroke="none" 
	d="
M450.000000,326.979797 
	C514.777100,326.979767 579.054260,326.979767 643.656982,326.979767 
	C643.656982,358.388977 643.656982,389.450195 643.656982,420.922729 
	C535.323303,420.922729 426.994080,420.922729 318.340576,420.922729 
	C318.340576,389.861237 318.340576,358.785339 318.340576,326.979797 
	C362.032288,326.979797 405.766144,326.979797 450.000000,326.979797 
M522.237976,369.094086 
	C521.070068,368.419556 519.902161,367.745056 518.332520,366.838562 
	C518.332520,374.184540 518.332520,380.583679 518.332520,386.982819 
	C518.852905,387.190887 519.373291,387.398987 519.893677,387.607086 
	C520.511902,386.348083 521.424133,385.148956 521.694824,383.819214 
	C522.623596,379.256927 523.327515,374.648895 524.960083,369.951782 
	C529.521912,368.902374 530.948730,371.221344 530.868347,375.334747 
	C530.792175,379.234711 530.851990,383.137299 530.851990,387.038727 
	C531.408569,387.208588 531.965149,387.378479 532.521729,387.548370 
	C533.053528,386.506317 533.979004,385.488068 534.043640,384.417786 
	C534.242981,381.119202 534.481445,377.744751 533.989258,374.508606 
	C533.628479,372.136749 532.648804,368.597839 531.032410,367.984650 
	C528.811157,367.141998 525.727600,368.572571 522.237976,369.094086 
M420.846191,375.282104 
	C420.682526,370.936462 421.175415,366.764618 425.771606,364.808868 
	C429.990356,363.013824 433.818481,363.641632 436.922455,367.454773 
	C437.406158,368.049072 438.976562,367.758820 440.475250,367.925446 
	C437.740723,362.074341 432.678528,359.866058 426.497864,361.191803 
	C420.580475,362.461090 417.077972,367.210815 417.009338,374.059082 
	C416.937286,381.243591 420.334106,385.943573 426.573151,387.292236 
	C433.018921,388.685516 437.736511,386.476105 440.884918,379.696686 
	C438.994659,380.365143 437.681854,380.461945 436.912689,381.158783 
	C429.962585,387.455719 422.993683,385.299469 420.846191,375.282104 
M510.054138,368.126068 
	C504.384155,366.087402 500.478363,366.838562 497.998047,370.444702 
	C495.473846,374.114777 495.607300,381.167603 498.266052,384.606842 
	C501.996155,389.431915 510.105652,388.587311 513.317139,382.128296 
	C510.110382,383.242584 507.616150,384.753113 505.070160,384.846100 
	C501.050079,384.992950 499.964844,381.986389 500.096863,377.997528 
	C504.764801,377.997528 509.340576,377.997528 515.355896,377.997528 
	C513.501892,374.257904 512.097412,371.425049 510.054138,368.126068 
M452.570831,366.969177 
	C445.794037,367.981628 443.419739,371.256134 443.963165,378.840424 
	C444.364227,384.438293 447.553223,387.686493 452.690979,387.730255 
	C458.043030,387.775848 461.204803,384.597382 461.775879,378.597321 
	C462.437927,371.641388 459.874268,368.086029 452.570831,366.969177 
M468.614166,367.535187 
	C466.148102,366.667938 465.819550,368.018494 465.842621,370.038940 
	C465.906891,375.660950 465.864929,381.284210 465.864929,386.906952 
	C466.394470,387.125946 466.924011,387.344910 467.453583,387.563904 
	C468.034180,386.461853 469.022675,385.393951 469.118286,384.251282 
	C469.394989,380.945862 469.072632,377.583405 469.441895,374.294586 
	C469.777283,371.307404 471.618652,369.572571 474.914062,369.763855 
	C478.334198,369.962372 478.228119,372.492676 478.301880,374.802948 
	C478.408020,378.127594 478.151520,381.474976 478.455383,384.775330 
	C478.546326,385.762939 479.992004,386.625793 480.816986,387.545807 
	C481.924652,382.579498 482.009155,378.596527 481.906433,374.618408 
	C481.713806,367.157990 477.064850,364.815186 470.554138,368.767700 
	C470.246887,368.954254 469.501221,368.418610 468.614166,367.535187 
M546.818726,385.384186 
	C544.102478,384.886261 542.546082,383.706909 542.874207,380.492462 
	C543.208801,377.214478 542.948181,373.875671 542.948181,370.652191 
	C544.299622,370.024536 545.463135,369.484161 546.331848,369.080688 
	C544.587219,366.873413 543.107422,365.001190 541.439819,362.891357 
	C540.075378,364.744690 538.588806,366.763977 537.486694,368.261017 
	C538.181335,370.331390 539.063416,371.953003 539.217163,373.640991 
	C539.487183,376.605286 539.149170,379.621582 539.358032,382.595551 
	C539.719177,387.736115 542.163696,388.836517 546.818726,385.384186 
M490.439392,371.708099 
	C491.639679,370.704010 492.839935,369.699890 493.778656,368.914581 
	C492.160431,366.910980 490.572693,364.945160 488.994873,362.991577 
	C487.719177,364.848053 486.426849,366.728729 485.503876,368.071899 
	C486.074585,370.438751 486.803284,372.371460 486.957336,374.348907 
	C487.202576,377.496246 486.788849,380.711823 487.220703,383.819794 
	C487.401062,385.117767 488.824341,386.783813 490.066193,387.241669 
	C491.312317,387.701080 493.036255,386.864441 493.291016,386.819275 
	C492.128235,383.907074 490.940887,381.843414 490.523468,379.634277 
	C490.097961,377.382416 490.429626,374.987518 490.439392,371.708099 
z"/>
<path fill="#B2D5C6" opacity="1.000000" stroke="none" 
	d="
M521.463928,279.835449 
	C523.183289,278.844666 524.767761,278.233398 526.352234,277.622131 
	C526.977173,280.177643 528.052246,282.739685 528.015076,285.285553 
	C527.999268,286.370850 525.788940,287.843018 524.316467,288.295746 
	C523.667297,288.495300 521.843445,286.753082 521.495544,285.606476 
	C520.991516,283.945404 521.342651,282.024811 521.463928,279.835449 
z"/>
<path fill="#B2D5C6" opacity="1.000000" stroke="none" 
	d="
M435.359131,462.997314 
	C437.257172,462.867615 438.940216,462.424561 440.154449,462.989410 
	C441.650055,463.685120 442.755035,465.220551 444.028870,466.393066 
	C442.845093,467.654846 441.874847,469.477814 440.421387,470.030823 
	C438.750610,470.666565 436.652222,470.178375 434.104309,470.178375 
	C434.421265,467.493683 434.678772,465.312317 435.359131,462.997314 
z"/>
<path fill="#B2D5C6" opacity="1.000000" stroke="none" 
	d="
M528.662109,472.121582 
	C528.276428,473.921021 528.233154,475.640961 527.368958,476.674316 
	C525.565125,478.831207 522.914673,479.093536 521.908386,476.251007 
	C521.101257,473.971252 521.583435,471.112610 522.007263,468.597473 
	C522.127380,467.884216 524.714294,466.756317 525.030579,467.049133 
	C526.455139,468.368042 527.470093,470.129364 528.662109,472.121582 
z"/>
<path fill="#B0D2C3" opacity="1.000000" stroke="none" 
	d="
M441.207458,280.437317 
	C438.851044,280.551239 436.887360,280.551239 434.609100,280.551239 
	C434.609100,278.108521 434.609100,275.865234 434.609100,272.293427 
	C437.850159,273.263367 440.778381,274.139679 443.706573,275.015991 
	C443.004425,276.785126 442.302307,278.554260 441.207458,280.437317 
z"/>
<path fill="#B8DCCC" opacity="1.000000" stroke="none" 
	d="
M473.377533,277.715240 
	C474.087646,280.500427 474.862946,283.066620 474.671967,285.558777 
	C474.589081,286.640869 472.522888,288.338074 471.348877,288.345215 
	C470.261688,288.351868 468.528625,286.653564 468.179138,285.399719 
	C466.667023,279.974609 468.453857,277.311371 473.377533,277.715240 
z"/>
<path fill="#B2D5C6" opacity="1.000000" stroke="none" 
	d="
M489.910126,276.930908 
	C490.179901,279.698975 490.858337,282.551788 490.534302,285.285797 
	C490.387085,286.527924 488.295624,288.330292 487.009491,288.396820 
	C485.978668,288.450134 484.170776,286.420532 483.851776,285.049225 
	C482.485413,279.175995 484.354095,276.843445 489.654938,277.279053 
	C489.981934,276.972321 489.909637,276.967133 489.910126,276.930908 
z"/>
<path fill="#B0D2C3" opacity="1.000000" stroke="none" 
	d="
M457.846375,283.061096 
	C457.880981,284.677399 457.847229,286.494843 456.998108,287.768860 
	C456.544739,288.449066 454.625000,288.475800 453.482666,288.239288 
	C452.892181,288.117035 452.007507,286.559387 452.216919,286.031586 
	C452.637421,284.971832 453.579346,283.947998 454.570557,283.341919 
	C455.311798,282.888641 456.467590,283.113342 457.846375,283.061096 
z"/>
<path fill="#B8DCCC" opacity="1.000000" stroke="none" 
	d="
M452.723816,477.443054 
	C451.662079,471.121124 455.979156,473.475769 458.995605,472.913055 
	C458.726776,477.227753 456.922180,478.852814 452.723816,477.443054 
z"/>
<path fill="#B8DCCC" opacity="1.000000" stroke="none" 
	d="
M473.993103,477.307739 
	C470.405487,478.782471 468.167755,478.185181 467.920593,473.926758 
	C467.593140,468.284973 468.387360,467.079773 473.475891,467.212036 
	C473.958405,470.525116 474.036316,473.734314 473.993103,477.307739 
z"/>
<path fill="#B8DCCC" opacity="1.000000" stroke="none" 
	d="
M489.831177,467.848694 
	C489.944824,471.190948 489.726257,474.315247 489.269043,477.723450 
	C487.375702,477.377777 484.480896,476.989777 484.302368,476.072815 
	C483.797638,473.481171 484.170441,470.616364 484.794159,468.001465 
	C484.906525,467.530609 487.858215,467.737030 489.831177,467.848694 
z"/>
<path fill="#141414" opacity="1.000000" stroke="none" 
	d="
M420.876526,375.703369 
	C422.993683,385.299469 429.962585,387.455719 436.912689,381.158783 
	C437.681854,380.461945 438.994659,380.365143 440.884918,379.696686 
	C437.736511,386.476105 433.018921,388.685516 426.573151,387.292236 
	C420.334106,385.943573 416.937286,381.243591 417.009338,374.059082 
	C417.077972,367.210815 420.580475,362.461090 426.497864,361.191803 
	C432.678528,359.866058 437.740723,362.074341 440.475250,367.925446 
	C438.976562,367.758820 437.406158,368.049072 436.922455,367.454773 
	C433.818481,363.641632 429.990356,363.013824 425.771606,364.808868 
	C421.175415,366.764618 420.682526,370.936462 420.876526,375.703369 
z"/>
<path fill="#1C1C1C" opacity="1.000000" stroke="none" 
	d="
M510.373566,368.359131 
	C512.097412,371.425049 513.501892,374.257904 515.355896,377.997528 
	C509.340576,377.997528 504.764801,377.997528 500.096863,377.997528 
	C499.964844,381.986389 501.050079,384.992950 505.070160,384.846100 
	C507.616150,384.753113 510.110382,383.242584 513.317139,382.128296 
	C510.105652,388.587311 501.996155,389.431915 498.266052,384.606842 
	C495.607300,381.167603 495.473846,374.114777 497.998047,370.444702 
	C500.478363,366.838562 504.384155,366.087402 510.373566,368.359131 
M500.237946,374.874054 
	C503.437988,375.073364 506.638062,375.272705 509.838104,375.472015 
	C510.158417,374.940033 510.478729,374.408051 510.799072,373.876068 
	C509.240112,372.477234 507.889740,370.371704 506.075897,369.836273 
	C502.932098,368.908264 500.783081,370.739777 500.237946,374.874054 
z"/>
<path fill="#191919" opacity="1.000000" stroke="none" 
	d="
M452.982666,366.971436 
	C459.874268,368.086029 462.437927,371.641388 461.775879,378.597321 
	C461.204803,384.597382 458.043030,387.775848 452.690979,387.730255 
	C447.553223,387.686493 444.364227,384.438293 443.963165,378.840424 
	C443.419739,371.256134 445.794037,367.981628 452.982666,366.971436 
M457.769958,373.163330 
	C456.738647,370.110138 454.330139,368.705811 451.610352,369.925598 
	C449.906738,370.689636 448.487335,372.986755 447.822754,374.902100 
	C447.220215,376.638611 447.187042,379.139252 448.040649,380.667480 
	C449.052063,382.478271 451.334900,384.784180 452.969086,384.710480 
	C454.679688,384.633392 456.876648,382.264557 457.745056,380.382507 
	C458.562469,378.611023 457.925385,376.168427 457.769958,373.163330 
z"/>
<path fill="#191919" opacity="1.000000" stroke="none" 
	d="
M468.786926,367.877228 
	C469.501221,368.418610 470.246887,368.954254 470.554138,368.767700 
	C477.064850,364.815186 481.713806,367.157990 481.906433,374.618408 
	C482.009155,378.596527 481.924652,382.579498 480.816986,387.545807 
	C479.992004,386.625793 478.546326,385.762939 478.455383,384.775330 
	C478.151520,381.474976 478.408020,378.127594 478.301880,374.802948 
	C478.228119,372.492676 478.334198,369.962372 474.914062,369.763855 
	C471.618652,369.572571 469.777283,371.307404 469.441895,374.294586 
	C469.072632,377.583405 469.394989,380.945862 469.118286,384.251282 
	C469.022675,385.393951 468.034180,386.461853 467.453583,387.563904 
	C466.924011,387.344910 466.394470,387.125946 465.864929,386.906952 
	C465.864929,381.284210 465.906891,375.660950 465.842621,370.038940 
	C465.819550,368.018494 466.148102,366.667938 468.786926,367.877228 
z"/>
<path fill="#272727" opacity="1.000000" stroke="none" 
	d="
M546.863953,385.777618 
	C542.163696,388.836517 539.719177,387.736115 539.358032,382.595551 
	C539.149170,379.621582 539.487183,376.605286 539.217163,373.640991 
	C539.063416,371.953003 538.181335,370.331390 537.486694,368.261017 
	C538.588806,366.763977 540.075378,364.744690 541.439819,362.891357 
	C543.107422,365.001190 544.587219,366.873413 546.331848,369.080688 
	C545.463135,369.484161 544.299622,370.024536 542.948181,370.652191 
	C542.948181,373.875671 543.208801,377.214478 542.874207,380.492462 
	C542.546082,383.706909 544.102478,384.886261 546.863953,385.777618 
z"/>
<path fill="#141414" opacity="1.000000" stroke="none" 
	d="
M490.434570,372.181671 
	C490.429626,374.987518 490.097961,377.382416 490.523468,379.634277 
	C490.940887,381.843414 492.128235,383.907074 493.291016,386.819275 
	C493.036255,386.864441 491.312317,387.701080 490.066193,387.241669 
	C488.824341,386.783813 487.401062,385.117767 487.220703,383.819794 
	C486.788849,380.711823 487.202576,377.496246 486.957336,374.348907 
	C486.803284,372.371460 486.074585,370.438751 485.503876,368.071899 
	C486.426849,366.728729 487.719177,364.848053 488.994873,362.991577 
	C490.572693,364.945160 492.160431,366.910980 493.778656,368.914581 
	C492.839935,369.699890 491.639679,370.704010 490.434570,372.181671 
z"/>
<path fill="#272727" opacity="1.000000" stroke="none" 
	d="
M524.117126,370.058289 
	C523.327515,374.648895 522.623596,379.256927 521.694824,383.819214 
	C521.424133,385.148956 520.511902,386.348083 519.893677,387.607086 
	C519.373291,387.398987 518.852905,387.190887 518.332520,386.982819 
	C518.332520,380.583679 518.332520,374.184540 518.332520,366.838562 
	C519.902161,367.745056 521.070068,368.419556 522.762878,369.278137 
	C523.564209,369.660889 523.840698,369.859589 524.117126,370.058289 
z"/>
<path fill="#0C0F0E" opacity="1.000000" stroke="none" 
	d="
M524.538574,370.005035 
	C523.840698,369.859589 523.564209,369.660889 523.150635,369.245667 
	C525.727600,368.572571 528.811157,367.141998 531.032410,367.984650 
	C532.648804,368.597839 533.628479,372.136749 533.989258,374.508606 
	C534.481445,377.744751 534.242981,381.119202 534.043640,384.417786 
	C533.979004,385.488068 533.053528,386.506317 532.521729,387.548370 
	C531.965149,387.378479 531.408569,387.208588 530.851990,387.038727 
	C530.851990,383.137299 530.792175,379.234711 530.868347,375.334747 
	C530.948730,371.221344 529.521912,368.902374 524.538574,370.005035 
z"/>
<path fill="#F7F7F7" opacity="1.000000" stroke="none" 
	d="
M500.159119,374.443237 
	C500.783081,370.739777 502.932098,368.908264 506.075897,369.836273 
	C507.889740,370.371704 509.240112,372.477234 510.799072,373.876068 
	C510.478729,374.408051 510.158417,374.940033 509.838104,375.472015 
	C506.638062,375.272705 503.437988,375.073364 500.159119,374.443237 
z"/>
<path fill="#F7F7F7" opacity="1.000000" stroke="none" 
	d="
M457.849091,373.592224 
	C457.925385,376.168427 458.562469,378.611023 457.745056,380.382507 
	C456.876648,382.264557 454.679688,384.633392 452.969086,384.710480 
	C451.334900,384.784180 449.052063,382.478271 448.040649,380.667480 
	C447.187042,379.139252 447.220215,376.638611 447.822754,374.902100 
	C448.487335,372.986755 449.906738,370.689636 451.610352,369.925598 
	C454.330139,368.705811 456.738647,370.110138 457.849091,373.592224 
z"/>
</svg>